<svg width="24" height="24" viewBox="0 0 24 24" fill="none" xmlns="http://www.w3.org/2000/svg">
<path d="M14.7105 6.71005C14.618 6.61734 14.5081 6.5438 14.3871 6.49361C14.2661 6.44343 14.1364 6.4176 14.0055 6.4176C13.8745 6.4176 13.7448 6.44343 13.6238 6.49361C13.5029 6.5438 13.393 6.61734 13.3005 6.71005L8.71047 11.3C8.32047 11.69 8.32047 12.32 8.71047 12.71L13.3005 17.3C13.6905 17.69 14.3205 17.69 14.7105 17.3C15.1005 16.91 15.1005 16.28 14.7105 15.89L10.8305 12L14.7105 8.12005C15.1005 7.73005 15.0905 7.09005 14.7105 6.71005Z" fill="black"/>
</svg>
