<svg width="40" height="40" viewBox="0 0 40 40" fill="none" xmlns="http://www.w3.org/2000/svg">
<path d="M20.0391 40C12.8516 40 6.28906 36.25 2.69531 30C-0.898438 23.8281 -0.898438 16.25 2.69531 10C6.28906 3.82812 12.8516 0 20.0391 0C27.1484 0 33.7109 3.82812 37.3047 10C40.8984 16.25 40.8984 23.8281 37.3047 30C33.7109 36.25 27.1484 40 20.0391 40Z" fill="black"/>
<path d="M20.0391 40C12.8516 40 6.28906 36.25 2.69531 30C-0.898438 23.8281 -0.898438 16.25 2.69531 10C6.28906 3.82812 12.8516 0 20.0391 0C27.1484 0 33.7109 3.82812 37.3047 10C40.8984 16.25 40.8984 23.8281 37.3047 30C33.7109 36.25 27.1484 40 20.0391 40ZM27.6172 15L25.0391 12.4219L23.7109 13.75L20.0391 17.4219L16.3672 13.75L15.0391 12.4219L12.3828 15L13.7109 16.3281L17.3828 20L13.7109 23.6719L12.3828 25L15.0391 27.6562L16.3672 26.3281L20.0391 22.6562L23.7109 26.3281L25.0391 27.6562L27.6172 25L26.2891 23.6719L22.6172 20L26.2891 16.3281L27.6172 15Z" fill="white"/>
</svg>
