<svg width="1944" height="576" viewBox="0 0 1944 576" fill="none" xmlns="http://www.w3.org/2000/svg">
<g clip-path="url(#clip0_43_478)">
<path d="M1736.7 172.13C1742.57 147.91 1728.52 127.75 1714.86 115.16L1846.9 115.07L1788.62 352.8L1929.47 352.98C1925.04 370.83 1918.68 392.7 1914.12 424.44L1674.71 424.68L1736.71 172.12H1736.7V172.13Z" fill="white"/>
<path d="M1375.9 172.87C1381.71 148.56 1367.5 128.3 1353.83 115.16H1485.98L1456.57 234.22L1569.22 234.18L1598.12 115.17H1694.51L1618.55 424.71H1522.31L1551.76 305.46L1439.19 305.64L1409.96 424.71H1313.75L1375.92 172.89L1375.9 172.87Z" fill="white"/>
<path d="M625.9 172.87C631.71 148.56 617.5 128.3 603.83 115.16H735.98L706.57 234.22L819.22 234.18L848.12 115.17H944.51L868.55 424.71H772.31L801.76 305.46L689.19 305.64L659.96 424.71H563.75L625.92 172.89L625.9 172.87Z" fill="white"/>
<path d="M971.73 118.03L970.73 115.03H1276.73C1303.73 115.03 1314.73 126.03 1326.73 146.03C1334.73 161.03 1329.73 184.03 1326.73 214.03C1320.73 276.03 1288.73 307.03 1245.73 307.03H1169.73C1170.73 311.03 1207.73 349.03 1280.73 425.03H1171.73L1076.73 326.03H1074.73L1047.73 425.03H944.73C985.73 258.03 1003.73 192.03 1003.73 165.03C1003.73 143.03 987.73 131.03 971.73 118.03ZM1094.73 231.03L1095.73 233.03H1221.73L1230.73 184.03H1105.73C1105.73 184.03 1100.73 207.03 1094.73 231.03Z" fill="white"/>
<path d="M466.967 209.778C466.967 184.314 473.089 161.765 481.169 143.445L497.193 107.054L459.487 95.93C443.08 91.081 431.124 78.6789 423.968 59.0779L407.324 13.5659L370.279 44.2479C358.085 54.3389 344.143 60.9359 329.356 60.9359C309.521 60.9359 289.89 51.0459 277.624 38.9069L253.755 15.3039L229.903 38.9069C217.626 51.0459 197.999 60.9359 178.159 60.9359C163.358 60.9359 149.424 54.3389 137.241 44.2479L100.181 13.5659L83.566 59.0779C76.384 78.6789 64.443 91.081 48.018 95.93L10.319 107.054L26.357 143.445C34.418 161.765 40.548 184.313 40.548 209.778C40.548 271.916 10.06 284.27 10.06 349.511C10.06 436.861 75.089 499.598 147.095 518.115C182.684 527.118 199.259 528.002 225.793 535.427C229.236 539.049 253.755 565.532 253.755 565.532C253.755 565.532 278.27 539.049 281.724 535.427C308.252 528.002 324.837 527.118 360.437 518.115C432.417 499.598 497.457 436.861 497.457 349.511C497.455 284.27 466.967 271.916 466.967 209.778ZM356.156 501.292C318.034 510.923 291.726 513.376 272.358 520.364C269.875 522.693 253.753 540.166 253.753 540.166C253.753 540.166 237.642 522.693 235.156 520.364C215.788 513.376 189.472 510.923 151.362 501.292C71.13 480.994 27.188 413.649 27.188 349.511C27.188 291.272 57.621 273.281 57.621 209.632C57.621 160.043 33.953 118.16 33.953 118.16C33.953 118.16 92.133 113.089 107.902 42.357C107.902 42.357 142.8 78.2889 178.159 78.2889C223.762 78.2889 253.754 39.546 253.754 39.546C253.754 39.546 283.757 78.2889 329.356 78.2889C364.715 78.2889 399.61 42.357 399.61 42.357C415.382 113.089 473.577 118.16 473.577 118.16C473.577 118.16 449.901 160.043 449.901 209.632C449.901 273.281 480.327 291.272 480.327 349.511C480.325 413.649 436.373 480.994 356.156 501.292Z" fill="#D0D3D4"/>
<path d="M432.773 209.632C432.773 164.241 449.936 129.262 449.936 129.262C449.936 129.262 410.343 121.274 391.898 71.1623C391.898 71.1623 365.619 95.6743 329.355 95.6743C283.927 95.6743 253.753 63.7773 253.753 63.7773C253.753 63.7773 223.589 95.6743 178.158 95.6743C141.894 95.6743 115.615 71.1623 115.615 71.1623C97.175 121.273 57.577 129.262 57.577 129.262C57.577 129.262 74.736 164.241 74.736 209.632C74.736 276.99 44.291 296.472 44.291 349.511C44.291 423.645 102.07 470.843 155.628 484.454C198.058 495.224 225.79 496.436 244.417 505.431C244.417 505.431 251.189 511.623 253.752 514.478C256.329 511.623 263.102 505.431 263.102 505.431C281.714 496.435 309.461 495.223 351.88 484.454C405.446 470.843 463.22 423.645 463.22 349.511C463.221 296.472 432.773 276.991 432.773 209.632ZM94.178 209.632C94.178 180.841 87.932 155.983 82.569 139.893C95.066 133.03 110.761 120.905 123.272 100.026C136.719 107.54 155.761 115.123 178.159 115.123C212.09 115.123 238.595 100.311 253.754 89.1793C268.912 100.311 295.428 115.123 329.356 115.123C334.766 115.123 339.98 114.67 344.978 113.889L67.238 322.48C75.241 291.083 94.178 265.089 94.178 209.632ZM132.015 454.78C96.47 436.526 65.362 401.448 63.81 353.3L389.82 108.477C401.196 124.263 414.24 134.022 424.949 139.892C419.582 155.982 413.339 180.84 413.339 209.631C413.339 221.609 414.212 232.179 415.676 241.765L132.015 454.78ZM347.091 465.602C313.492 474.152 272.387 478.54 259.978 485.631C257.178 487.675 253.753 491.319 253.753 491.319C253.753 491.319 250.329 487.676 247.535 485.631C235.119 478.541 194.013 474.152 160.415 465.602C159.141 465.28 157.885 464.93 156.614 464.572L421.013 266.009C430.012 297.524 443.776 318.158 443.776 349.512C443.776 412.423 393.658 453.766 347.091 465.602Z" fill="#D0D3D4"/>
<path d="M184.88 353.505L154.428 306.861L120.599 332.271C120.599 332.271 132.45 332.593 132.45 345.013V432.831L156.322 414.919V352.811L183.517 394.482L208.756 375.541V266.067L184.88 283.986V353.505Z" fill="#D0D3D4"/>
<path d="M281.646 251.785L254.731 271.988V231.526L218.365 258.831C218.365 258.831 230.215 259.167 230.215 271.594V359.419L254.73 341.004V300.961L281.645 280.765V320.793L304.988 303.262V193.78L281.645 211.326L281.646 251.785Z" fill="#D0D3D4"/>
<path d="M349.88 241.613V160.089L313.521 187.387C313.521 187.387 325.376 187.712 325.376 200.128V287.964L393.052 237.125C391.595 219.601 393.052 209.2 393.052 209.2L349.88 241.613Z" fill="#D0D3D4"/>
<path d="M399.608 42.3569C399.608 42.3569 364.713 78.2889 329.354 78.2889C283.755 78.2889 253.752 39.5459 253.752 39.5459C253.752 39.5459 223.76 78.2889 178.157 78.2889C142.798 78.2889 107.9 42.3569 107.9 42.3569C92.132 113.089 33.951 118.16 33.951 118.16C33.951 118.16 57.619 160.043 57.619 209.632C57.619 273.281 27.186 291.272 27.186 349.511C27.186 413.649 71.128 480.993 151.36 501.292C189.471 510.923 215.786 513.376 235.154 520.364C237.64 522.693 253.751 540.166 253.751 540.166C253.751 540.166 269.873 522.693 272.356 520.364C291.724 513.376 318.032 510.923 356.154 501.292C436.371 480.994 480.323 413.649 480.323 349.511C480.323 291.272 449.897 273.281 449.897 209.632C449.897 160.043 473.573 118.16 473.573 118.16C473.573 118.16 415.38 113.089 399.608 42.3569ZM432.773 209.632C432.773 276.99 463.221 296.472 463.221 349.511C463.221 423.645 405.447 470.843 351.881 484.454C309.462 495.224 281.715 496.436 263.103 505.431C263.103 505.431 256.33 511.623 253.753 514.478C251.19 511.623 244.418 505.431 244.418 505.431C225.791 496.435 198.059 495.223 155.629 484.454C102.071 470.843 44.292 423.645 44.292 349.511C44.292 296.472 74.737 276.99 74.737 209.632C74.737 164.241 57.578 129.262 57.578 129.262C57.578 129.262 97.175 121.274 115.616 71.1619C115.616 71.1619 141.895 95.6739 178.159 95.6739C223.591 95.6739 253.754 63.7769 253.754 63.7769C253.754 63.7769 283.928 95.6739 329.356 95.6739C365.62 95.6739 391.899 71.1619 391.899 71.1619C410.343 121.273 449.937 129.262 449.937 129.262C449.937 129.262 432.773 164.241 432.773 209.632Z" fill="black"/>
<path d="M431.013 56.5L410.732 1L365.483 38.451C353.497 48.385 341.329 53.43 329.354 53.43C313.327 53.43 295.098 45.635 282.9 33.573L253.752 4.735L224.607 33.573C212.414 45.636 194.185 53.43 178.157 53.43C166.175 53.43 154.021 48.385 142.032 38.451L96.776 1L76.495 56.5C70.193 73.747 59.898 84.601 45.901 88.734L0 102.26L19.47 146.48C28.466 166.888 33.029 188.173 33.029 209.778C33.029 269.535 2.54001 283.138 2.54001 349.511C2.54001 445.135 76.496 507.718 145.197 525.395C179.925 533.858 190.413 534.413 221.767 542.138C224.326 544.884 253.752 576.566 253.752 576.566C253.752 576.566 283.178 544.884 285.729 542.138C317.087 534.413 327.579 533.858 362.299 525.395C431.004 507.718 504.967 445.135 504.967 349.511C504.967 283.138 474.471 269.535 474.471 209.778C474.471 188.173 479.027 166.888 488.027 146.48L507.508 102.26L461.617 88.734C447.599 84.601 437.319 73.747 431.013 56.5ZM481.169 143.445C473.089 161.765 466.967 184.313 466.967 209.778C466.967 271.916 497.455 284.27 497.455 349.511C497.455 436.861 432.415 499.598 360.435 518.115C324.835 527.118 308.25 528.002 281.722 535.427C278.268 539.049 253.753 565.532 253.753 565.532C253.753 565.532 229.234 539.049 225.791 535.427C199.257 528.002 182.682 527.118 147.093 518.115C75.088 499.598 10.058 436.861 10.058 349.511C10.058 284.27 40.546 271.916 40.546 209.778C40.546 184.314 34.416 161.765 26.355 143.445L10.317 107.054L48.016 95.93C64.441 91.081 76.383 78.679 83.564 59.078L100.179 13.566L137.239 44.248C149.422 54.339 163.357 60.936 178.157 60.936C197.996 60.936 217.623 51.046 229.901 38.907L253.753 15.304L277.622 38.907C289.889 51.046 309.519 60.936 329.354 60.936C344.14 60.936 358.083 54.339 370.277 44.248L407.322 13.566L423.966 59.078C431.122 78.679 443.079 91.081 459.485 95.93L497.191 107.054L481.169 143.445Z" fill="black"/>
<path d="M389.82 108.478L63.81 353.301C65.361 401.449 96.47 436.526 132.015 454.781L415.676 241.768C414.212 232.181 413.339 221.612 413.339 209.634C413.339 180.843 419.582 155.985 424.949 139.895C414.241 134.023 401.197 124.264 389.82 108.478Z" fill="black"/>
<path d="M350.613 160.837L383.581 136.388L384.085 137.067L383.484 214.381L383.735 214.72L420.436 187.503C420.944 187.243 421.352 187.321 421.66 187.735C421.472 205.054 421.284 213.783 421.096 213.923L360.587 258.795L360.336 258.455L360.701 170.185C360.538 169.02 360.093 167.948 359.366 166.967L358.611 165.949C357.521 164.479 354.712 163.056 350.186 161.68L350.613 160.837Z" fill="#D0D3D4"/>
<path d="M261.264 227.097L294.233 202.648L294.736 203.326L294.572 241.4L294.824 241.739L322.364 221.316C322.58 195.212 322.835 181.846 323.13 181.218L344.223 165.576C344.731 165.316 345.125 165.374 345.405 165.751C345.238 234.709 344.984 269.665 344.64 270.621L322.925 286.724L322.674 286.385L322.41 249.154L294.531 269.829C294.177 271.085 294.046 282.255 294.139 303.339C293.99 306.605 293.84 308.294 293.689 308.406L271.239 325.055L270.987 324.715L271.352 236.445C271.189 235.28 270.744 234.207 270.017 233.227L269.262 232.209C268.172 230.739 265.364 229.316 260.837 227.939L261.264 227.097Z" fill="#D0D3D4"/>
<path d="M175.418 290.847L245.71 238.719C248.273 236.818 251.421 237.99 255.153 242.234C257.613 245.552 258.043 253.466 258.063 263.955C258.102 284.966 255.03 297.106 245.68 304.04L228.967 316.96C230.776 315.618 226.194 319.367 228.967 316.96C229.246 317.337 239.298 322.855 259.123 333.513L258.696 334.356L235.284 351.718C234.673 351.996 226.025 347.19 209.341 337.299L209.002 337.551L208.084 371.889L185.69 388.496L185.438 388.157C185.961 331.498 186.096 302.094 185.845 299.943C185.71 298.816 185.211 297.433 184.347 295.795C183.424 294.551 180.616 293.128 175.921 291.525L175.418 290.847ZM208.54 305.726L208.792 306.065L235.257 286.439C235.628 285.521 235.812 281.002 235.809 272.882L208.948 292.802C208.797 292.914 208.661 297.222 208.54 305.726Z" fill="#D0D3D4"/>
<path d="M86.3666 356.798L119.335 332.349L119.838 333.028L119.675 371.101L119.926 371.44L147.466 351.017C147.682 324.913 147.938 311.547 148.232 310.919L169.325 295.277C169.834 295.017 170.228 295.075 170.507 295.452C170.341 364.41 170.086 399.366 169.743 400.322L148.028 416.426L147.776 416.086L147.513 378.855L119.634 399.53C119.28 400.786 119.149 411.956 119.241 433.04C119.092 436.306 118.942 437.995 118.791 438.107L96.3412 454.756L96.0895 454.416L96.4542 366.146C96.2915 364.981 95.8467 363.908 95.1198 362.928L94.365 361.91C93.2746 360.44 90.4661 359.017 85.9396 357.641L86.3666 356.798Z" fill="#D0D3D4"/>
<path d="M329.355 115.123C295.428 115.123 268.911 100.311 253.753 89.1792C238.594 100.311 212.089 115.123 178.158 115.123C155.76 115.123 136.718 107.54 123.271 100.026C110.76 120.905 95.065 133.03 82.568 139.893C87.931 155.983 94.177 180.841 94.177 209.632C94.177 265.089 75.24 291.082 67.238 322.48L344.977 113.888C339.979 114.67 334.765 115.123 329.355 115.123Z" fill="black"/>
<path d="M156.615 464.572C157.885 464.929 159.141 465.28 160.416 465.602C194.014 474.152 235.12 478.54 247.536 485.631C250.329 487.675 253.754 491.319 253.754 491.319C253.754 491.319 257.178 487.676 259.979 485.631C272.388 478.541 313.493 474.152 347.092 465.602C393.659 453.766 443.777 412.424 443.777 349.512C443.777 318.158 430.013 297.524 421.014 266.009L156.615 464.572Z" fill="black"/>
<path d="M476.474 520.686C476.474 509.85 467.686 501.073 456.847 501.073C446.011 501.073 437.242 509.849 437.242 520.686C437.242 531.529 446.012 540.298 456.847 540.298C467.686 540.298 476.474 531.529 476.474 520.686ZM441.44 520.686C441.44 512.179 448.337 505.279 456.847 505.279C465.364 505.279 472.265 512.179 472.265 520.686C472.265 529.207 465.364 536.092 456.847 536.092C448.337 536.092 441.44 529.207 441.44 520.686Z" fill="white"/>
<path d="M464.912 531.894L460.483 522.401C463.075 521.489 464.912 519.036 464.912 516.144C464.912 512.457 461.94 509.493 458.257 509.493H448.79V531.895H453.011V522.782H456.016L460.273 531.895L464.912 531.894ZM458.256 518.583H453.009V513.691H458.256C459.61 513.691 460.709 514.779 460.709 516.144C460.709 517.487 459.61 518.583 458.256 518.583Z" fill="white"/>
</g>
<defs>
<clipPath id="clip0_43_478">
<rect width="1944" height="576" fill="white"/>
</clipPath>
</defs>
</svg>
