<svg width="16" height="16" viewBox="0 0 16 16" fill="none" xmlns="http://www.w3.org/2000/svg">
<path d="M8 0.25C12.375 0.25 15.75 3.46875 15.75 7.78125C15.75 13.25 10.5312 16.3125 5.75 15C5.46875 14.9375 5.4375 15 3.8125 15.7188C3.59375 15.7812 3.375 15.7812 3.21875 15.6562C3.03125 15.5625 2.9375 15.375 2.9375 15.1562C2.875 13.7188 2.9375 13.5938 2.6875 13.3438C1.15625 12 0.25 10.0312 0.25 7.78125C0.25 3.46875 3.625 0.25 8 0.25ZM12.6562 6.0625C12.875 5.71875 12.4688 5.3125 12.125 5.5625L9.6875 7.40625C9.5 7.53125 9.28125 7.53125 9.125 7.40625L7.3125 6.0625C7.03125 5.875 6.71875 5.78125 6.40625 5.84375C6.0625 5.90625 5.78125 6.09375 5.625 6.375L3.34375 9.96875C3.125 10.3125 3.53125 10.7188 3.875 10.4688L6.3125 8.625C6.5 8.5 6.71875 8.5 6.875 8.625L8.6875 9.96875C8.96875 10.1562 9.28125 10.25 9.625 10.1875C9.9375 10.125 10.2188 9.9375 10.375 9.65625L12.6562 6.0625Z" fill="white"/>
</svg>
