<svg width="16" height="17" viewBox="0 0 16 17" fill="none" xmlns="http://www.w3.org/2000/svg">
<path d="M14.5 8C14.5 5.6875 13.25 3.5625 11.25 2.375C9.21875 1.21875 6.75 1.21875 4.75 2.375C2.71875 3.5625 1.5 5.6875 1.5 8C1.5 10.3438 2.71875 12.4688 4.75 13.6562C6.75 14.8125 9.21875 14.8125 11.25 13.6562C13.25 12.4688 14.5 10.3438 14.5 8ZM0 8C0 5.15625 1.5 2.53125 4 1.09375C6.46875 -0.34375 9.5 -0.34375 12 1.09375C14.4688 2.53125 16 5.15625 16 8C16 10.875 14.4688 13.5 12 14.9375C9.5 16.375 6.46875 16.375 4 14.9375C1.5 13.5 0 10.875 0 8ZM12 8L5.5 12V4L12 8Z" fill="white"/>
</svg>
