<svg width="16" height="16" viewBox="0 0 16 16" fill="none" xmlns="http://www.w3.org/2000/svg">
<path d="M6.96875 4.4375H9.90625L5.5 15H2.5625L3.75 12.2188L0.4375 4.4375H3.46875L5.21875 8.90625L6.96875 4.4375ZM10.2812 8.65625C10.75 8.65625 11.2188 8.84375 11.5625 9.1875C11.9062 9.53125 12.0938 10 12.0938 10.5C12.0938 11.2188 11.6562 11.875 10.9688 12.1562C10.2812 12.4375 9.5 12.2812 8.96875 11.7812C8.46875 11.25 8.3125 10.4688 8.59375 9.78125C8.875 9.125 9.53125 8.65625 10.2812 8.65625ZM12.3125 1H15.5938L12.6875 8H9.40625L12.3125 1Z" fill="white"/>
</svg>
